<?xml version="1.0" encoding="utf-8"?>
<!-- Generator: Adobe Illustrator 18.0.0, SVG Export Plug-In . SVG Version: 6.00 Build 0)  -->
<!DOCTYPE svg PUBLIC "-//W3C//DTD SVG 1.1//EN" "http://www.w3.org/Graphics/SVG/1.1/DTD/svg11.dtd">
<svg version="1.1" xmlns="http://www.w3.org/2000/svg" xmlns:xlink="http://www.w3.org/1999/xlink" x="0px" y="0px"
	 viewBox="0 0 84 84" enable-background="new 0 0 84 84" xml:space="preserve">
<g id="图层_2" display="none">
	<rect display="inline" fill="#9D62A6" width="84" height="84"/>
</g>
<g id="图层_1">
	<g>
		<polygon fill="none" stroke="#FFFFFF" stroke-miterlimit="10" points="6.1,21.2 42,0.5 77.9,21.2 77.9,62.8 42,83.5 6.1,62.8 		
			"/>
		<polygon fill="none" stroke="#FFFFFF" stroke-miterlimit="10" points="10.8,24 42,6 73.2,24 73.2,60 42,78 10.8,60 		"/>
	</g>
	<g display="none">
		<path display="inline" fill="none" stroke="#FFFFFF" stroke-linecap="round" stroke-linejoin="round" stroke-miterlimit="10" d="
			M36.7,54v7.1h9.4V54c3.4-1.7,5.8-5.3,5.8-9.3c0-5.8-4.7-10.5-10.5-10.5c-5.8,0-10.5,4.7-10.5,10.5C31,48.7,33.3,52.3,36.7,54z"/>
		<g display="inline">
			<path fill="none" stroke="#FFFFFF" stroke-linecap="round" stroke-linejoin="round" stroke-miterlimit="10" d="M40.9,28.8
				c0.5,0,1-0.4,1-1v-5.9c0-0.5-0.4-1-1-1c-0.5,0-1,0.4-1,1v5.9C39.9,28.3,40.4,28.8,40.9,28.8z"/>
			<path fill="none" stroke="#FFFFFF" stroke-linecap="round" stroke-linejoin="round" stroke-miterlimit="10" d="M50.6,31.7
				l4.2-4.2c0.4-0.4,0.4-1,0-1.4c-0.4-0.4-1-0.4-1.4,0l-4.2,4.2c-0.4,0.4-0.4,1,0,1.4C49.5,32.1,50.2,32.1,50.6,31.7z"/>
			<path fill="none" stroke="#FFFFFF" stroke-linecap="round" stroke-linejoin="round" stroke-miterlimit="10" d="M32.3,30.8
				c0.4,0.4,1,0.4,1.4,0c0.4-0.4,0.4-1,0-1.4l-4.2-4.2c-0.4-0.4-1-0.4-1.4,0c-0.4,0.4-0.4,1,0,1.4L32.3,30.8z"/>
		</g>
	</g>
	<g display="none">
		
			<circle display="inline" fill="none" stroke="#FFFFFF" stroke-linecap="round" stroke-linejoin="round" stroke-miterlimit="10" cx="25.2" cy="29.5" r="3.1"/>
		
			<circle display="inline" fill="none" stroke="#FFFFFF" stroke-linecap="round" stroke-linejoin="round" stroke-miterlimit="10" cx="25.2" cy="38" r="3.1"/>
		
			<circle display="inline" fill="none" stroke="#FFFFFF" stroke-linecap="round" stroke-linejoin="round" stroke-miterlimit="10" cx="25.2" cy="46.7" r="3.1"/>
		
			<circle display="inline" fill="none" stroke="#FFFFFF" stroke-linecap="round" stroke-linejoin="round" stroke-miterlimit="10" cx="25.2" cy="55.4" r="3.1"/>
		<path display="inline" fill="none" stroke="#FFFFFF" stroke-linecap="round" stroke-linejoin="round" stroke-miterlimit="10" d="
			M31.4,30.3h28c0.4,0,0.8-0.4,0.8-0.8c0-0.4-0.4-0.8-0.8-0.8h-28c-0.4,0-0.8,0.4-0.8,0.8C30.6,29.9,31,30.3,31.4,30.3z"/>
		<path display="inline" fill="none" stroke="#FFFFFF" stroke-linecap="round" stroke-linejoin="round" stroke-miterlimit="10" d="
			M31.4,38.8h28c0.4,0,0.8-0.4,0.8-0.8c0-0.4-0.4-0.8-0.8-0.8h-28c-0.4,0-0.8,0.4-0.8,0.8C30.6,38.4,31,38.8,31.4,38.8z"/>
		<path display="inline" fill="none" stroke="#FFFFFF" stroke-linecap="round" stroke-linejoin="round" stroke-miterlimit="10" d="
			M31.4,47.5h28c0.4,0,0.8-0.4,0.8-0.8c0-0.4-0.4-0.8-0.8-0.8h-28c-0.4,0-0.8,0.4-0.8,0.8C30.6,47.1,31,47.5,31.4,47.5z"/>
		<path display="inline" fill="none" stroke="#FFFFFF" stroke-linecap="round" stroke-linejoin="round" stroke-miterlimit="10" d="
			M59.6,54.6h-28c-0.4,0-0.8,0.4-0.8,0.8c0,0.4,0.4,0.8,0.8,0.8h28c0.4,0,0.8-0.4,0.8-0.8C60.4,54.9,60,54.6,59.6,54.6z"/>
	</g>
	<g>
		<g>
			
				<line fill="none" stroke="#FFFFFF" stroke-linecap="round" stroke-linejoin="round" stroke-miterlimit="10" x1="44.8" y1="29.1" x2="48" y2="32.4"/>
			
				<line fill="none" stroke="#FFFFFF" stroke-linecap="round" stroke-linejoin="round" stroke-miterlimit="10" x1="40.8" y1="29.4" x2="48.5" y2="37"/>
		</g>
		<g>
			<path fill="none" stroke="#FFFFFF" stroke-linecap="round" stroke-linejoin="round" stroke-miterlimit="10" d="M54.3,61.1
				c0,0.9-0.8,1.7-1.7,1.7H30.5c-0.9,0-1.7-0.8-1.7-1.7V23.6c0-0.9,0.8-1.7,1.7-1.7h22.1c0.9,0,1.7,0.8,1.7,1.7V61.1z"/>
		</g>
		<g>
			
				<rect x="33.3" y="28" fill="none" stroke="#FFFFFF" stroke-linecap="round" stroke-linejoin="round" stroke-miterlimit="10" width="16.5" height="27.3"/>
			<path fill="none" stroke="#FFFFFF" stroke-linecap="round" stroke-linejoin="round" stroke-miterlimit="10" d="M37.9,26h7.2
				c0.5,0,0.8-0.4,0.8-0.8c0-0.5-0.4-0.8-0.8-0.8h-7.2c-0.5,0-0.8,0.4-0.8,0.8C37.1,25.6,37.5,26,37.9,26z"/>
			
				<circle fill="none" stroke="#FFFFFF" stroke-linecap="round" stroke-linejoin="round" stroke-miterlimit="10" cx="41.5" cy="59.2" r="2.3"/>
		</g>
	</g>
	<g display="none">
		<path display="inline" fill="none" stroke="#FFFFFF" stroke-linecap="round" stroke-linejoin="round" stroke-miterlimit="10" d="
			M34.4,45.5l-6.2,14.6c-0.2,0.5-0.8,0.7-1.2,0.6l0,0c-0.5-0.2-0.7-0.8-0.4-1.2l6-14.2"/>
		<path display="inline" fill="none" stroke="#FFFFFF" stroke-linecap="round" stroke-linejoin="round" stroke-miterlimit="10" d="
			M46.8,45.5L53,60.2c0.2,0.5,0.8,0.7,1.3,0.5l0,0c0.5-0.2,0.7-0.8,0.5-1.3l-5.9-14.2"/>
		<path display="inline" fill="none" stroke="#FFFFFF" stroke-linecap="round" stroke-linejoin="round" stroke-miterlimit="10" d="
			M41.6,45.7v14.5c0,0.5-0.4,0.9-0.9,0.9l0,0c-0.5,0-0.9-0.4-0.9-0.9V45.7"/>
		<path display="inline" fill="none" stroke="#FFFFFF" stroke-linecap="round" stroke-linejoin="round" stroke-miterlimit="10" d="
			M52.4,43.6c0.8,0,1.4,0.4,1.4,0.9l0,0c0,0.5-0.6,0.9-1.4,0.9H28.9c-0.8,0-1.4-0.4-1.4-0.9l0,0c0-0.5,0.6-0.9,1.4-0.9H52.4z"/>
		
			<rect x="31.6" y="24.6" display="inline" fill="none" stroke="#FFFFFF" stroke-linecap="round" stroke-linejoin="round" stroke-miterlimit="10" width="18.5" height="19"/>
		<path display="inline" fill="none" stroke="#FFFFFF" stroke-linecap="round" stroke-linejoin="round" stroke-miterlimit="10" d="
			M41.7,24.5v-2.8c0-0.5-0.4-0.9-0.9-0.9l0,0c-0.5,0-0.9,0.4-0.9,0.9v2.9"/>
		
			<polyline display="inline" fill="none" stroke="#FFFFFF" stroke-linecap="round" stroke-linejoin="round" stroke-miterlimit="10" points="
			44.1,24.7 44.1,25.9 37.6,25.9 37.6,24.7 		"/>
		<g display="inline">
			<polygon fill="none" stroke="#FFFFFF" stroke-linecap="round" stroke-linejoin="round" stroke-miterlimit="10" points="
				51.2,55.5 41.7,55.5 41.7,56.8 51.7,56.8 			"/>
			<polygon fill="none" stroke="#FFFFFF" stroke-linecap="round" stroke-linejoin="round" stroke-miterlimit="10" points="
				30.2,55.5 29.8,56.8 39.7,56.8 39.7,55.5 			"/>
		</g>
	</g>
</g>
</svg>
