<?xml version="1.0" encoding="utf-8"?>
<!-- Generator: Adobe Illustrator 18.0.0, SVG Export Plug-In . SVG Version: 6.00 Build 0)  -->
<!DOCTYPE svg PUBLIC "-//W3C//DTD SVG 1.1//EN" "http://www.w3.org/Graphics/SVG/1.1/DTD/svg11.dtd">
<svg version="1.1" id="图层_1" xmlns="http://www.w3.org/2000/svg" xmlns:xlink="http://www.w3.org/1999/xlink" x="0px" y="0px"
	 viewBox="0 0 32 32" enable-background="new 0 0 32 32" xml:space="preserve">
<g display="none">
	<path display="inline" fill="#FFFFFF" d="M1.6,11.9c-0.4,0-0.6-0.4-0.4-0.6C1.9,10.1,3.8,6,4.5,3.2c0,0,0.6-1.3,2.4-1.7
		c0.4,0,0.7,0.4,0.7,0.7C7.5,3,7.1,4.1,6.8,5.2c-0.4,0,0,0.2,0.2,0.2h8.5h0.2c0.2,0,0.9,0.4,0.9,1.5v0.9h-5.2C11.2,7.8,11,8,11,8.2
		v6.7c0,0.2,0.2,0.4,0.4,0.4h5c0,0,0.7,0,0.7,1.7v0.7h-5.8c-0.2,0-0.4,0.2-0.4,0.4c0,0.7,0.2,2.6-0.4,3.3l0.4-0.6
		c0.2-0.2,0.7-0.4,0.9-0.4l3.7,4.5l0.2,0.2v2.8c0,0.4-0.6,0.6-0.7,0.2l-4.5-5.4h-0.2c0,0-0.7,3.9-4.3,6.9c0,0-0.7,0.9-4.1,0.9
		c-0.4,0-0.6-0.4-0.2-0.7c1.9-1.7,6.5-6.5,6.5-12.1v-0.4H2.1c-0.2,0-0.4-0.2-0.4-0.6c0-0.6,0.4-1.7,1.3-2h0.2h5
		c0.2,0,0.4-0.2,0.4-0.4V7.8c0-0.2-0.2-0.4-0.4-0.4H6.6c-0.2,0-0.4,0.2-0.4,0.4c-0.2,0.6-0.6,2-1.7,2.8C4,11.2,3,11.9,1.6,11.9z"/>
	<path display="inline" fill="#FFFFFF" d="M18.3,27.3V5.1h12.6v22.1h-5.2l-4.1,3.2l-0.7-3H18.3z M22.3,24.9l0.6,2.2l2.4-2.2h3V7.8
		h-7.4v17.3L22.3,24.9z"/>
</g>
<polygon display="none" fill="#FFFFFF" points="1.4,25.1 4.2,25.1 4.2,8 1.4,8 1.4,4.2 12.4,4.2 16,18.7 19.6,4.2 30.6,4.2 
	30.6,7.8 27.7,7.8 27.7,25.1 30.6,25.1 30.6,27.8 20.4,27.8 20.4,25.1 23.1,25.1 23.1,8 22.2,8 16.9,27.8 14,27.8 8.5,7.8 7.8,7.8 
	7.8,25.1 10.2,25.1 10.2,27.8 1.4,27.8 "/>
<g display="none">
	<path display="inline" fill="#FFFFFF" d="M14.7,8.4c0.5,0.8,0.8,1.7,0.8,2.9s-0.3,2-0.8,2.7c-0.3,0.3-0.8,0.7-1.4,1
		c1,0.3,1.7,0.8,2.2,1.7c0.5,0.7,0.7,1.7,0.7,2.7c0,1.2-0.3,2-0.8,3.1c-0.3,0.5-0.8,1-1.4,1.5c-0.7,0.5-1.4,0.8-2.2,1
		c-0.8,0.2-1.7,0.3-2.7,0.3H0.6v-19h9.2C12.2,6.3,13.7,7,14.7,8.4z M4.5,9.6v4.2h4.6c0.8,0,1.5-0.2,2-0.5c0.5-0.3,0.8-0.8,0.8-1.7
		s-0.3-1.5-1-1.7c-0.5-0.2-1.4-0.3-2.2-0.3H4.5z M4.5,16.9v5.1h4.6c0.8,0,1.5-0.2,1.9-0.3c0.8-0.3,1.2-1.2,1.2-2.4
		c0-1-0.3-1.7-1.2-2c-0.5-0.2-1-0.3-1.9-0.3L4.5,16.9L4.5,16.9z"/>
	<path display="inline" fill="#FFFFFF" d="M27.6,11.6c1,0.5,1.7,1.2,2.4,2c0.5,0.8,1,1.9,1.2,2.9c0.2,0.7,0.2,1.5,0.2,2.7H21.2
		c0,1.4,0.5,2.4,1.5,2.9c0.5,0.3,1.2,0.5,2,0.5s1.5-0.2,2-0.7c0.3-0.2,0.5-0.5,0.7-1h3.7c-0.2,0.8-0.5,1.7-1.4,2.5
		c-1.2,1.4-3.1,2-5.3,2c-1.9,0-3.6-0.5-4.9-1.7c-1.4-1.2-2.2-3.1-2.2-5.6c0-2.4,0.7-4.2,1.9-5.6c1.4-1.4,2.9-1.9,4.9-1.9
		C25.6,10.9,26.6,11.1,27.6,11.6z M22.2,14.7c-0.5,0.5-0.8,1.2-1,2.2h6.3c0-1-0.3-1.7-1-2.2c-0.5-0.5-1.4-0.7-2.2-0.7
		S22.7,14.1,22.2,14.7z"/>
	<rect x="20.2" y="7.2" display="inline" fill="#FFFFFF" width="8.1" height="2.4"/>
</g>
<g display="none">
	<path display="inline" fill="#FFFFFF" d="M22.6,28c-2.5,1-4.7,1.4-7.8,1.4c-7.1,0-13.2-4.6-13.2-12.2c0-8,6.3-14.9,15.9-14.9
		C25,2.3,30.4,7,30.4,13.6c0,5.8-3.6,9.3-8.1,9.3c-2,0-3.4-1-3.7-3h-0.2c-1.4,2-3.2,3-5.6,3C10.1,23,8,21.1,8,17.9
		c0-4.7,3.9-9.1,10-9.1c1.9,0,4.1,0.5,5.1,1L21.8,17c-0.3,2.4-0.2,3.4,1,3.4c1.9,0,4.1-2,4.1-6.6c0-5.1-3.6-9-10.2-9S4.5,9.4,4.5,17
		c0,6.6,4.6,10.2,10.8,10.2c2.2,0,4.6-0.5,6.3-1.2L22.6,28z M18.9,11.9c-0.3,0-0.8-0.2-1.4-0.2c-2.9,0-5.1,2.5-5.1,5.6
		c0,1.5,0.7,2.4,2.2,2.4s3.2-1.9,3.6-4.1L18.9,11.9z"/>
</g>
<path fill="none" stroke="#FFFFFF" stroke-width="2" stroke-miterlimit="10" d="M30.3,25H2V6.6h28.3V25z M2,6.6l14.1,9.2 M15.1,15.8
	l15.2-9.2"/>
</svg>
