<?xml version="1.0" encoding="utf-8"?>
<!-- Generator: Adobe Illustrator 18.0.0, SVG Export Plug-In . SVG Version: 6.00 Build 0)  -->
<!DOCTYPE svg PUBLIC "-//W3C//DTD SVG 1.1//EN" "http://www.w3.org/Graphics/SVG/1.1/DTD/svg11.dtd">
<svg version="1.1" id="图层_1" xmlns="http://www.w3.org/2000/svg" xmlns:xlink="http://www.w3.org/1999/xlink" x="0px" y="0px"
	 viewBox="0 0 32 32" enable-background="new 0 0 32 32" xml:space="preserve">
<g display="none">
	<path display="inline" fill="#FFFFFF" d="M1.6,11.9c-0.4,0-0.6-0.4-0.4-0.6C1.9,10.1,3.8,6,4.5,3.2c0,0,0.6-1.3,2.4-1.7
		c0.4,0,0.7,0.4,0.7,0.7C7.5,3,7.1,4.1,6.8,5.2c-0.4,0,0,0.2,0.2,0.2h8.5h0.2c0.2,0,0.9,0.4,0.9,1.5v0.9h-5.2C11.2,7.8,11,8,11,8.2
		v6.7c0,0.2,0.2,0.4,0.4,0.4h5c0,0,0.7,0,0.7,1.7v0.7h-5.8c-0.2,0-0.4,0.2-0.4,0.4c0,0.7,0.2,2.6-0.4,3.3l0.4-0.6
		c0.2-0.2,0.7-0.4,0.9-0.4l3.7,4.5l0.2,0.2v2.8c0,0.4-0.6,0.6-0.7,0.2l-4.5-5.4h-0.2c0,0-0.7,3.9-4.3,6.9c0,0-0.7,0.9-4.1,0.9
		c-0.4,0-0.6-0.4-0.2-0.7c1.9-1.7,6.5-6.5,6.5-12.1v-0.4H2.1c-0.2,0-0.4-0.2-0.4-0.6c0-0.6,0.4-1.7,1.3-2h0.2h5
		c0.2,0,0.4-0.2,0.4-0.4V7.8c0-0.2-0.2-0.4-0.4-0.4H6.6c-0.2,0-0.4,0.2-0.4,0.4c-0.2,0.6-0.6,2-1.7,2.8C4,11.2,3,11.9,1.6,11.9z"/>
	<path display="inline" fill="#FFFFFF" d="M18.3,27.3V5.1h12.6v22.1h-5.2l-4.1,3.2l-0.7-3H18.3z M22.3,24.9l0.6,2.2l2.4-2.2h3V7.8
		h-7.4v17.3L22.3,24.9z"/>
</g>
<polygon fill="#FFFFFF" points="1.4,25.1 4.2,25.1 4.2,8 1.4,8 1.4,4.2 12.4,4.2 16,18.7 19.6,4.2 30.6,4.2 30.6,7.8 27.7,7.8 
	27.7,25.1 30.6,25.1 30.6,27.8 20.4,27.8 20.4,25.1 23.1,25.1 23.1,8 22.2,8 16.9,27.8 14,27.8 8.5,7.8 7.8,7.8 7.8,25.1 10.2,25.1 
	10.2,27.8 1.4,27.8 "/>
</svg>
